<svg width="17" height="17" viewBox="0 0 17 17" fill="none" xmlns="http://www.w3.org/2000/svg">
<path d="M4.29161 13.0541C4.29161 13.7788 4.88452 14.3717 5.60919 14.3717H10.8795C11.6042 14.3717 12.1971 13.7788 12.1971 13.0541V6.46617C12.1971 5.7415 11.6042 5.14859 10.8795 5.14859H5.60919C4.88452 5.14859 4.29161 5.7415 4.29161 6.46617V13.0541ZM6.26799 6.46617H10.2207C10.5831 6.46617 10.8795 6.76263 10.8795 7.12497V12.3953C10.8795 12.7576 10.5831 13.0541 10.2207 13.0541H6.26799C5.90565 13.0541 5.60919 12.7576 5.60919 12.3953V7.12497C5.60919 6.76263 5.90565 6.46617 6.26799 6.46617ZM10.5501 3.17221L10.0824 2.70446C9.96382 2.58588 9.79253 2.51341 9.62124 2.51341H6.86749C6.6962 2.51341 6.52492 2.58588 6.40633 2.70446L5.93859 3.17221H4.29161C3.92927 3.17221 3.63281 3.46866 3.63281 3.831C3.63281 4.19334 3.92927 4.48979 4.29161 4.48979H12.1971C12.5595 4.48979 12.8559 4.19334 12.8559 3.831C12.8559 3.46866 12.5595 3.17221 12.1971 3.17221H10.5501Z" fill="#331000"/>
</svg>
