<svg width="17" height="17" viewBox="0 0 17 17" fill="none" xmlns="http://www.w3.org/2000/svg">
<path fill-rule="evenodd" clip-rule="evenodd" d="M8.5883 11.5354C8.52242 11.5354 8.45654 11.4695 8.39066 11.4036L5.75549 8.76843C5.49197 8.50491 5.49197 8.10964 5.75549 7.84612C6.01901 7.5826 6.41428 7.5826 6.6778 7.84612L8.19302 9.36134V1.71934C8.19302 1.32406 8.45654 1.06055 8.85182 1.06055C9.24709 1.06055 9.51061 1.32406 9.51061 1.71934V9.36134L11.0258 7.84612C11.2894 7.5826 11.6846 7.5826 11.9481 7.84612C12.2117 8.10964 12.2117 8.50491 11.9481 8.76843L9.31297 11.4036C9.28003 11.4365 9.24709 11.453 9.21415 11.4695C9.18121 11.486 9.14827 11.5024 9.11533 11.5354C9.04946 11.6012 8.9177 11.6012 8.85182 11.6012C8.78594 11.6012 8.65418 11.6012 8.5883 11.5354ZM15.4398 13.5776V11.6012C15.4398 11.206 15.1763 10.9424 14.781 10.9424C14.3857 10.9424 14.1222 11.206 14.1222 11.6012V13.5776C14.1222 13.9729 13.8587 14.2364 13.4634 14.2364H4.2403C3.84502 14.2364 3.5815 13.9729 3.5815 13.5776V11.6012C3.5815 11.206 3.31799 10.9424 2.92271 10.9424C2.52743 10.9424 2.26392 11.206 2.26392 11.6012V13.5776C2.26392 14.6976 3.12035 15.554 4.2403 15.554H13.4634C14.5834 15.554 15.4398 14.6976 15.4398 13.5776Z" fill="black"/>
<mask id="mask0_28_21309" style="mask-type:luminance" maskUnits="userSpaceOnUse" x="2" y="1" width="14" height="15">
<path fill-rule="evenodd" clip-rule="evenodd" d="M8.5883 11.5354C8.52242 11.5354 8.45654 11.4695 8.39066 11.4036L5.75549 8.76843C5.49197 8.50491 5.49197 8.10964 5.75549 7.84612C6.01901 7.5826 6.41428 7.5826 6.6778 7.84612L8.19302 9.36134V1.71934C8.19302 1.32406 8.45654 1.06055 8.85182 1.06055C9.24709 1.06055 9.51061 1.32406 9.51061 1.71934V9.36134L11.0258 7.84612C11.2894 7.5826 11.6846 7.5826 11.9481 7.84612C12.2117 8.10964 12.2117 8.50491 11.9481 8.76843L9.31297 11.4036C9.28003 11.4365 9.24709 11.453 9.21415 11.4695C9.18121 11.486 9.14827 11.5024 9.11533 11.5354C9.04946 11.6012 8.9177 11.6012 8.85182 11.6012C8.78594 11.6012 8.65418 11.6012 8.5883 11.5354ZM15.4398 13.5776V11.6012C15.4398 11.206 15.1763 10.9424 14.781 10.9424C14.3857 10.9424 14.1222 11.206 14.1222 11.6012V13.5776C14.1222 13.9729 13.8587 14.2364 13.4634 14.2364H4.2403C3.84502 14.2364 3.5815 13.9729 3.5815 13.5776V11.6012C3.5815 11.206 3.31799 10.9424 2.92271 10.9424C2.52743 10.9424 2.26392 11.206 2.26392 11.6012V13.5776C2.26392 14.6976 3.12035 15.554 4.2403 15.554H13.4634C14.5834 15.554 15.4398 14.6976 15.4398 13.5776Z" fill="white"/>
</mask>
<g mask="url(#mask0_28_21309)">
<rect x="0.946411" y="0.401855" width="15.811" height="15.811" fill="#121212"/>
</g>
</svg>
