<svg width="24" height="25" viewBox="0 0 24 25" fill="none" xmlns="http://www.w3.org/2000/svg">
<path fill-rule="evenodd" clip-rule="evenodd" d="M4.76023 8.25673C4.76023 5.51489 6.82836 3.3606 9.46052 3.3606C12.0927 3.3606 14.1608 5.51489 14.1608 8.25673C14.1608 10.9986 12.0927 13.1529 9.46052 13.1529C6.82836 13.1529 4.76023 10.9986 4.76023 8.25673ZM13.4485 13.9624H5.84848C3.13333 13.9624 1 16.1013 1 18.8235V20.768C1 21.3513 1.38788 21.7402 1.9697 21.7402C2.55152 21.7402 2.93939 21.3513 2.93939 20.768V18.8235C2.93939 17.1707 4.2 15.9068 5.84848 15.9068H11.6147L13.4485 13.9624ZM9.46052 11.1944C7.86242 11.1944 6.64034 9.92141 6.64034 8.25673C6.64034 6.59204 7.86242 5.31905 9.46052 5.31905C11.0586 5.31905 12.2807 6.59204 12.2807 8.25673C12.2807 9.92141 11.0586 11.1944 9.46052 11.1944Z" fill="#331000"/>
<path d="M22.2673 12.3521L20.2632 10.2644C20.0016 10.0085 19.6588 9.86165 19.3001 9.85182C18.9414 9.84198 18.5917 9.96985 18.3175 10.2111L11.7345 17.0684C11.4981 17.3168 11.3509 17.6423 11.3176 17.9903L11.0031 21.1675C10.9932 21.2791 11.0071 21.3916 11.0438 21.497C11.0805 21.6023 11.139 21.698 11.2152 21.7771C11.2835 21.8477 11.3646 21.9036 11.4537 21.9415C11.5428 21.9794 11.6383 21.9986 11.7345 21.998H11.8003L14.8505 21.7085C15.1846 21.6738 15.4971 21.5205 15.7355 21.2742L22.3185 14.4169C22.574 14.1357 22.7121 13.7605 22.7025 13.3735C22.6929 12.9864 22.5364 12.6192 22.2673 12.3521ZM14.7188 20.1847L12.5245 20.398L12.722 18.1122L16.8546 13.8607L18.8295 15.9179L14.7188 20.1847ZM19.7804 14.8969L17.8201 12.855L19.2465 11.3311L21.2433 13.4112L19.7804 14.8969Z" fill="#331000"/>
</svg>
