<svg width="26" height="26" viewBox="0 0 26 26" fill="none" xmlns="http://www.w3.org/2000/svg">
<path d="M3.81113 0.537842H22.7844C24.2547 0.537842 25.4466 1.72975 25.4466 3.20005V22.1733C25.4466 23.6436 24.2547 24.8355 22.7844 24.8355H3.81113C2.34084 24.8355 1.14893 23.6436 1.14893 22.1733V3.20005C1.14893 1.72975 2.34084 0.537842 3.81113 0.537842Z" stroke="#EFEFEF"/>
<path d="M14.6549 10.7235L15.261 11.3296L9.29233 17.2982H8.68624V16.6921L14.6549 10.7235V10.7235ZM17.0266 6.75754C16.8619 6.75754 16.6906 6.82342 16.5654 6.94859L15.3598 8.15418L17.8303 10.6247L19.0359 9.41906C19.2928 9.16213 19.2928 8.74709 19.0359 8.49016L17.4943 6.94859C17.3625 6.81683 17.1978 6.75754 17.0266 6.75754V6.75754ZM14.6549 8.85909L7.36865 16.1453V18.6158H9.83913L17.1254 11.3296L14.6549 8.85909V8.85909Z" fill="#121212"/>
</svg>
