<svg width="16" height="17" viewBox="0 0 16 17" fill="none" xmlns="http://www.w3.org/2000/svg">
<path fill-rule="evenodd" clip-rule="evenodd" d="M14.2668 1.90001C14.4002 1.96668 14.5335 2.10001 14.6002 2.23334C14.6668 2.30001 14.6668 2.43334 14.6668 2.50001V6.50001C14.6668 6.90001 14.4002 7.16668 14.0002 7.16668C13.6002 7.16668 13.3335 6.90001 13.3335 6.50001V4.10001L7.1335 10.3C7.00016 10.4333 6.86683 10.5 6.66683 10.5C6.46683 10.5 6.3335 10.4333 6.20016 10.3C5.9335 10.0333 5.9335 9.63334 6.20016 9.36668L12.4002 3.16668H10.0002C9.60016 3.16668 9.3335 2.90001 9.3335 2.50001C9.3335 2.10001 9.60016 1.83334 10.0002 1.83334H14.0002C14.0668 1.83334 14.2002 1.83334 14.2668 1.90001ZM12.6668 13.1667V9.16668C12.6668 8.76668 12.4002 8.50001 12.0002 8.50001C11.6002 8.50001 11.3335 8.76668 11.3335 9.16668V13.1667C11.3335 13.5667 11.0668 13.8333 10.6668 13.8333H3.3335C2.9335 13.8333 2.66683 13.5667 2.66683 13.1667V5.83334C2.66683 5.43334 2.9335 5.16668 3.3335 5.16668H7.3335C7.7335 5.16668 8.00016 4.90001 8.00016 4.50001C8.00016 4.10001 7.7335 3.83334 7.3335 3.83334H3.3335C2.20016 3.83334 1.3335 4.70001 1.3335 5.83334V13.1667C1.3335 14.3 2.20016 15.1667 3.3335 15.1667H10.6668C11.8002 15.1667 12.6668 14.3 12.6668 13.1667Z" fill="black"/>
<mask id="mask0_28_20124" style="mask-type:luminance" maskUnits="userSpaceOnUse" x="1" y="1" width="14" height="15">
<path fill-rule="evenodd" clip-rule="evenodd" d="M14.2668 1.90001C14.4002 1.96668 14.5335 2.10001 14.6002 2.23334C14.6668 2.30001 14.6668 2.43334 14.6668 2.50001V6.50001C14.6668 6.90001 14.4002 7.16668 14.0002 7.16668C13.6002 7.16668 13.3335 6.90001 13.3335 6.50001V4.10001L7.1335 10.3C7.00016 10.4333 6.86683 10.5 6.66683 10.5C6.46683 10.5 6.3335 10.4333 6.20016 10.3C5.9335 10.0333 5.9335 9.63334 6.20016 9.36668L12.4002 3.16668H10.0002C9.60016 3.16668 9.3335 2.90001 9.3335 2.50001C9.3335 2.10001 9.60016 1.83334 10.0002 1.83334H14.0002C14.0668 1.83334 14.2002 1.83334 14.2668 1.90001ZM12.6668 13.1667V9.16668C12.6668 8.76668 12.4002 8.50001 12.0002 8.50001C11.6002 8.50001 11.3335 8.76668 11.3335 9.16668V13.1667C11.3335 13.5667 11.0668 13.8333 10.6668 13.8333H3.3335C2.9335 13.8333 2.66683 13.5667 2.66683 13.1667V5.83334C2.66683 5.43334 2.9335 5.16668 3.3335 5.16668H7.3335C7.7335 5.16668 8.00016 4.90001 8.00016 4.50001C8.00016 4.10001 7.7335 3.83334 7.3335 3.83334H3.3335C2.20016 3.83334 1.3335 4.70001 1.3335 5.83334V13.1667C1.3335 14.3 2.20016 15.1667 3.3335 15.1667H10.6668C11.8002 15.1667 12.6668 14.3 12.6668 13.1667Z" fill="white"/>
</mask>
<g mask="url(#mask0_28_20124)">
<rect y="0.5" width="16" height="16" fill="#606367"/>
</g>
</svg>
