<svg width="16" height="17" viewBox="0 0 16 17" fill="none" xmlns="http://www.w3.org/2000/svg">
<path fill-rule="evenodd" clip-rule="evenodd" d="M7.94654 2.51341C12.8978 2.51341 15.6705 7.91552 15.8025 8.17904C15.8686 8.31079 15.8686 8.57431 15.8025 8.70607C15.6705 8.96959 12.8978 14.3717 7.94654 14.3717C3.28614 14.3717 0.555856 9.58566 0.141045 8.85852C0.115155 8.81313 0.0982848 8.78356 0.0905283 8.77195C0.0245114 8.57431 0.0245114 8.37667 0.0905283 8.17904C0.222562 7.91552 2.99527 2.51341 7.94654 2.51341ZM1.41112 8.44255C2.07129 9.49662 4.38188 13.0541 7.94679 13.0541C11.5117 13.0541 13.8223 9.49662 14.4825 8.44255C13.8223 7.38848 11.5117 3.831 7.94679 3.831C4.38188 3.831 2.00527 7.38848 1.41112 8.44255ZM7.94665 5.80738C6.49428 5.80738 5.30598 6.99321 5.30598 8.44255C5.30598 9.8919 6.49428 11.0777 7.94665 11.0777C9.39902 11.0777 10.5873 9.8919 10.5873 8.44255C10.5873 6.99321 9.39902 5.80738 7.94665 5.80738ZM6.62652 8.44254C6.62652 9.16722 7.22068 9.76013 7.94686 9.76013C8.67305 9.76013 9.2672 9.16722 9.2672 8.44254C9.2672 7.71787 8.67305 7.12496 7.94686 7.12496C7.22068 7.12496 6.62652 7.71787 6.62652 8.44254Z" fill="#331000"/>
<mask id="mask0_193_346" style="mask-type:luminance" maskUnits="userSpaceOnUse" x="0" y="2" width="16" height="13">
<path fill-rule="evenodd" clip-rule="evenodd" d="M7.94654 2.51341C12.8978 2.51341 15.6705 7.91552 15.8025 8.17904C15.8686 8.31079 15.8686 8.57431 15.8025 8.70607C15.6705 8.96959 12.8978 14.3717 7.94654 14.3717C3.28614 14.3717 0.555856 9.58566 0.141045 8.85852C0.115155 8.81313 0.0982848 8.78356 0.0905283 8.77195C0.0245114 8.57431 0.0245114 8.37667 0.0905283 8.17904C0.222562 7.91552 2.99527 2.51341 7.94654 2.51341ZM1.41112 8.44255C2.07129 9.49662 4.38188 13.0541 7.94679 13.0541C11.5117 13.0541 13.8223 9.49662 14.4825 8.44255C13.8223 7.38848 11.5117 3.831 7.94679 3.831C4.38188 3.831 2.00527 7.38848 1.41112 8.44255ZM7.94665 5.80738C6.49428 5.80738 5.30598 6.99321 5.30598 8.44255C5.30598 9.8919 6.49428 11.0777 7.94665 11.0777C9.39902 11.0777 10.5873 9.8919 10.5873 8.44255C10.5873 6.99321 9.39902 5.80738 7.94665 5.80738ZM6.62652 8.44254C6.62652 9.16722 7.22068 9.76013 7.94686 9.76013C8.67305 9.76013 9.2672 9.16722 9.2672 8.44254C9.2672 7.71787 8.67305 7.12496 7.94686 7.12496C7.22068 7.12496 6.62652 7.71787 6.62652 8.44254Z" fill="white"/>
</mask>
<g mask="url(#mask0_193_346)">
<rect x="0.0410156" y="0.537033" width="15.811" height="15.811" fill="#331000"/>
</g>
</svg>
