<svg width="34" height="35" viewBox="0 0 34 35" fill="none" xmlns="http://www.w3.org/2000/svg">
<mask id="mask0_28_20397" style="mask-type:luminance" maskUnits="userSpaceOnUse" x="6" y="7" width="23" height="21">
<path fill-rule="evenodd" clip-rule="evenodd" d="M27.009 7.3606C27.409 7.3606 27.709 7.5606 27.909 7.9606C28.109 8.2606 28.009 8.6606 27.809 8.9606L20.009 18.1606V26.3606C20.009 26.7606 19.809 27.0606 19.509 27.2606C19.409 27.3606 19.209 27.3606 19.009 27.3606C18.809 27.3606 18.709 27.3606 18.609 27.2606L14.609 25.2606C14.209 25.0606 14.009 24.7606 14.009 24.3606V18.1606L6.20902 8.9606C6.00902 8.6606 5.90902 8.2606 6.10902 7.9606C6.30902 7.5606 6.60902 7.3606 7.00902 7.3606H27.009ZM18.009 17.8606C18.009 17.5606 18.109 17.3606 18.209 17.1606L24.909 9.3606H9.20902L15.809 17.2606C15.909 17.3606 16.009 17.6606 16.009 17.8606V23.7606L18.009 24.7606V17.8606Z" fill="white"/>
</mask>
<g mask="url(#mask0_28_20397)">
<rect x="5" y="5.3606" width="24" height="24" fill="#331000"/>
</g>
</svg>
