<svg width="20" height="21" viewBox="0 0 20 21" fill="none" xmlns="http://www.w3.org/2000/svg">
<g id="logos:javascript" clip-path="url(#clip0_28_20978)">
<path id="Vector" d="M0 0.360596H20V20.3606H0V0.360596Z" fill="#F7DF1E"/>
<path id="Vector_2" d="M5.25887 17.074L6.78934 16.1478C7.08465 16.6713 7.35324 17.1143 7.99754 17.1143C8.61512 17.1143 9.00457 16.8727 9.00457 15.933V9.54256H10.884V15.9596C10.884 17.9062 9.74293 18.7923 8.07809 18.7923C6.57457 18.7923 5.70184 18.0137 5.25879 17.0739M11.9049 16.8726L13.4352 15.9866C13.8381 16.6445 14.3617 17.1278 15.2879 17.1278C16.0668 17.1278 16.5633 16.7384 16.5633 16.2014C16.5633 15.557 16.0532 15.3287 15.1939 14.9529L14.7242 14.7514C13.3682 14.1743 12.4687 13.4493 12.4687 11.9188C12.4687 10.5091 13.5427 9.43506 15.2209 9.43506C16.4157 9.43506 17.275 9.85131 17.8925 10.9387L16.429 11.8786C16.1068 11.3013 15.7579 11.0731 15.2208 11.0731C14.6704 11.0731 14.3213 11.4222 14.3213 11.8786C14.3213 12.4424 14.6704 12.6708 15.4758 13.0198L15.9457 13.2212C17.5433 13.9059 18.4428 14.604 18.4428 16.1746C18.4428 17.8663 17.1137 18.7926 15.3282 18.7926C13.5829 18.7926 12.4552 17.9602 11.9048 16.8727" fill="black"/>
</g>
<defs>
<clipPath id="clip0_28_20978">
<rect width="20" height="20" fill="white" transform="translate(0 0.360596)"/>
</clipPath>
</defs>
</svg>
