<svg width="160" height="48" viewBox="0 0 160 48" fill="none" xmlns="http://www.w3.org/2000/svg">
<path d="M102.742 42.8181V35.5454H104.28V38.5461H107.402V35.5454H108.936V42.8181H107.402V39.8139H104.28V42.8181H102.742ZM110.003 42.8181V35.5454H112.873C113.422 35.5454 113.891 35.6436 114.279 35.8401C114.67 36.0343 114.967 36.3101 115.17 36.6675C115.376 37.0227 115.479 37.4405 115.479 37.9211C115.479 38.4041 115.375 38.8195 115.167 39.1675C114.958 39.5132 114.657 39.7783 114.261 39.963C113.868 40.1477 113.392 40.24 112.834 40.24H110.912V39.0042H112.585C112.879 39.0042 113.122 38.9639 113.317 38.8835C113.511 38.803 113.655 38.6822 113.75 38.5212C113.847 38.3603 113.895 38.1602 113.895 37.9211C113.895 37.6796 113.847 37.476 113.75 37.3103C113.655 37.1446 113.51 37.0191 113.313 36.9339C113.119 36.8463 112.874 36.8025 112.578 36.8025H111.541V42.8181H110.003ZM113.931 39.5085L115.738 42.8181H114.041L112.273 39.5085H113.931ZM125.164 39.1818C125.164 39.9748 125.013 40.6496 124.713 41.2059C124.414 41.7622 124.007 42.1872 123.491 42.4808C122.977 42.772 122.4 42.9175 121.758 42.9175C121.112 42.9175 120.532 42.7708 120.018 42.4772C119.504 42.1836 119.098 41.7587 118.8 41.2023C118.502 40.646 118.353 39.9725 118.353 39.1818C118.353 38.3887 118.502 37.7139 118.8 37.1576C119.098 36.6013 119.504 36.1775 120.018 35.8863C120.532 35.5927 121.112 35.446 121.758 35.446C122.4 35.446 122.977 35.5927 123.491 35.8863C124.007 36.1775 124.414 36.6013 124.713 37.1576C125.013 37.7139 125.164 38.3887 125.164 39.1818ZM123.605 39.1818C123.605 38.668 123.528 38.2348 123.374 37.882C123.222 37.5293 123.008 37.2618 122.731 37.0795C122.454 36.8972 122.13 36.806 121.758 36.806C121.386 36.806 121.062 36.8972 120.785 37.0795C120.508 37.2618 120.293 37.5293 120.139 37.882C119.987 38.2348 119.911 38.668 119.911 39.1818C119.911 39.6955 119.987 40.1287 120.139 40.4815C120.293 40.8342 120.508 41.1017 120.785 41.284C121.062 41.4663 121.386 41.5575 121.758 41.5575C122.13 41.5575 122.454 41.4663 122.731 41.284C123.008 41.1017 123.222 40.8342 123.374 40.4815C123.528 40.1287 123.605 39.6955 123.605 39.1818ZM126.074 44.8636V37.3636H127.566V38.2798H127.633C127.699 38.133 127.795 37.9838 127.921 37.8323C128.049 37.6784 128.214 37.5506 128.418 37.4488C128.624 37.3446 128.88 37.2925 129.185 37.2925C129.583 37.2925 129.95 37.3967 130.286 37.605C130.622 37.811 130.891 38.1223 131.092 38.539C131.293 38.9533 131.394 39.4729 131.394 40.0979C131.394 40.7064 131.296 41.2201 131.099 41.6391C130.905 42.0558 130.64 42.3719 130.304 42.5873C129.97 42.8004 129.596 42.9069 129.181 42.9069C128.888 42.9069 128.638 42.8584 128.432 42.7613C128.229 42.6642 128.062 42.5423 127.931 42.3955C127.801 42.2464 127.702 42.0961 127.633 41.9445H127.587V44.8636H126.074ZM127.555 40.0908C127.555 40.4152 127.6 40.6981 127.69 40.9396C127.78 41.181 127.91 41.3693 128.081 41.5042C128.251 41.6368 128.458 41.7031 128.702 41.7031C128.948 41.7031 129.157 41.6356 129.327 41.5006C129.497 41.3633 129.627 41.1739 129.714 40.9325C129.804 40.6886 129.849 40.4081 129.849 40.0908C129.849 39.776 129.805 39.499 129.718 39.2599C129.63 39.0208 129.501 38.8337 129.331 38.6988C129.16 38.5639 128.951 38.4964 128.702 38.4964C128.456 38.4964 128.247 38.5615 128.077 38.6917C127.909 38.8219 127.78 39.0066 127.69 39.2457C127.6 39.4848 127.555 39.7665 127.555 40.0908ZM136.741 38.919L135.356 39.0042C135.332 38.8858 135.281 38.7793 135.203 38.6846C135.125 38.5875 135.022 38.5106 134.894 38.4538C134.769 38.3946 134.618 38.365 134.443 38.365C134.209 38.365 134.011 38.4147 133.85 38.5141C133.689 38.6112 133.609 38.7414 133.609 38.9048C133.609 39.035 133.661 39.1451 133.765 39.235C133.869 39.325 134.048 39.3972 134.301 39.4516L135.288 39.6505C135.819 39.7594 136.214 39.9346 136.474 40.1761C136.735 40.4175 136.865 40.7348 136.865 41.1278C136.865 41.4853 136.76 41.7989 136.549 42.0688C136.341 42.3387 136.054 42.5494 135.69 42.7009C135.327 42.8501 134.909 42.9246 134.436 42.9246C133.714 42.9246 133.139 42.7743 132.71 42.4737C132.284 42.1706 132.034 41.7587 131.961 41.2379L133.449 41.1597C133.494 41.3799 133.603 41.548 133.775 41.664C133.948 41.7776 134.17 41.8345 134.44 41.8345C134.705 41.8345 134.918 41.7836 135.079 41.6818C135.242 41.5776 135.325 41.4438 135.327 41.2805C135.325 41.1432 135.267 41.0307 135.153 40.9431C135.04 40.8532 134.864 40.7845 134.628 40.7371L133.683 40.5489C133.15 40.4424 132.754 40.2577 132.494 39.995C132.235 39.7322 132.106 39.3972 132.106 38.99C132.106 38.6396 132.201 38.3378 132.391 38.0845C132.582 37.8311 132.851 37.6358 133.197 37.4985C133.545 37.3612 133.952 37.2925 134.418 37.2925C135.107 37.2925 135.649 37.4381 136.045 37.7293C136.442 38.0205 136.674 38.4171 136.741 38.919Z" fill="white"/>
<path d="M94.513 5.20728C96.3149 5.15311 98.1138 5.10675 99.9159 5.07887C100.527 5.06723 101.137 5.05137 101.748 5.03093C105.793 4.899 109.003 5.09347 112.435 7.54498C114.862 9.97538 116.071 12.9257 116.124 16.349C116.12 16.6419 116.116 16.9349 116.112 17.2367C116.11 17.5437 116.107 17.8506 116.104 18.1669C116.007 21.6918 115.036 24.5405 112.435 27.0258C109.891 28.6769 107.874 29.4238 104.833 29.4015C104.582 29.4011 104.33 29.4007 104.071 29.4003C103.133 29.3983 102.196 29.3928 101.258 29.3878C99.1609 29.3798 97.0635 29.3717 94.9026 29.3634C94.9026 33.8635 94.9026 38.3636 94.9026 43C92.074 43 89.2454 43 86.3311 43C86.3311 36.057 86.3311 29.1141 86.3311 21.9608C95.5844 21.839 95.5844 21.839 98.5001 21.8096C99.2632 21.797 100.026 21.784 100.789 21.7705C101.185 21.7681 101.581 21.7656 101.989 21.7631C102.368 21.7554 102.748 21.7476 103.139 21.7396C103.468 21.7353 103.796 21.7309 104.135 21.7265C105.242 21.5348 105.779 21.1694 106.591 20.4023C107.28 18.336 107.342 16.1416 106.445 14.1441C105.865 13.3514 105.865 13.3514 105.033 12.9996C104.241 12.9395 103.448 12.9023 102.655 12.8763C102.183 12.86 101.711 12.8437 101.225 12.8269C100.73 12.8115 100.234 12.7962 99.7241 12.7804C99.2259 12.7636 98.7276 12.7468 98.2143 12.7294C96.9806 12.688 95.7468 12.6488 94.513 12.61C94.513 10.1671 94.513 7.7242 94.513 5.20728Z" fill="white"/>
<path d="M61.0063 5.20731C62.7251 5.18033 64.4431 5.1571 66.1619 5.1431C66.7453 5.13726 67.3288 5.12931 67.9121 5.11913C72.3271 5.04408 75.6319 5.17747 79.023 8.3425C81.4472 11.036 82.2302 14.6601 82.143 18.2016C81.8635 21.1624 81.1074 24.1176 78.9287 26.2465C77.9292 26.9766 76.901 27.6081 75.8117 28.1946C76.3602 29.9869 77.0917 31.6271 77.9455 33.2901C78.0741 33.5444 78.2027 33.7986 78.3352 34.0606C78.7426 34.8658 79.1519 35.67 79.5618 36.474C80.1044 37.5384 80.6449 38.6039 81.1842 39.67C81.3096 39.9143 81.435 40.1587 81.5641 40.4104C82.4352 42.1329 82.4352 42.1329 82.4352 43C79.2209 43 76.0065 43 72.6948 43C69.6091 36.4428 69.6091 36.4428 66.461 29.7531C63.7609 29.5602 63.7609 29.5602 61.0063 29.3635C61.0063 26.9206 61.0063 24.4777 61.0063 21.9608C61.6914 21.9372 62.3765 21.9136 63.0823 21.8892C63.9812 21.8564 64.8802 21.8234 65.7791 21.7903C66.2307 21.775 66.6822 21.7597 67.1474 21.7439C67.5818 21.7276 68.0162 21.7113 68.4638 21.6944C69.0637 21.673 69.0637 21.673 69.6757 21.6512C70.605 21.5818 71.4141 21.4435 72.3052 21.1815C72.704 19.865 72.7469 18.6574 72.7435 17.2854C72.7445 16.8836 72.7455 16.4818 72.7466 16.0678C72.7021 15.1049 72.5832 14.3071 72.3052 13.3892C71.0155 13.0101 69.805 12.9242 68.4638 12.8763C68.0294 12.86 67.595 12.8437 67.1474 12.8269C66.6958 12.8116 66.2443 12.7962 65.7791 12.7805C65.3216 12.7636 64.8641 12.7468 64.3927 12.7295C63.2639 12.6882 62.1351 12.6489 61.0063 12.61C61.0063 10.1671 61.0063 7.72423 61.0063 5.20731Z" fill="#F6B955"/>
<path d="M30.2266 35.5973C38.7124 35.5973 47.1982 35.5973 55.9412 35.5973C55.9412 38.0402 55.9412 40.4831 55.9412 43C47.4554 43 38.9695 43 30.2266 43C30.2266 40.5571 30.2266 38.1142 30.2266 35.5973Z" fill="white"/>
<path d="M30.2266 5.20728C38.7124 5.20728 47.1982 5.20728 55.9412 5.20728C55.9412 7.65017 55.9412 10.0931 55.9412 12.61C47.4554 12.61 38.9695 12.61 30.2266 12.61C30.2266 10.1671 30.2266 7.72419 30.2266 5.20728Z" fill="white"/>
<path d="M30.2266 20.0126C37.941 20.0126 45.6553 20.0126 53.6035 20.0126C53.6035 22.5841 53.6035 25.1556 53.6035 27.8049C45.8891 27.8049 38.1747 27.8049 30.2266 27.8049C30.2266 25.2335 30.2266 22.662 30.2266 20.0126Z" fill="white"/>
<path d="M141.354 27.1106L142.5 30.2078L145.597 31.3539L142.5 32.5L141.354 35.5972L140.208 32.5L137.11 31.3539L140.208 30.2078L141.354 27.1106Z" fill="#FFC853"/>
</svg>
