<svg width="17" height="16" viewBox="0 0 17 16" fill="none" xmlns="http://www.w3.org/2000/svg">
<g clip-path="url(#clip0_28_20054)">
<path d="M10.0017 13.3791C9.94013 13.3792 9.88098 13.3552 9.83685 13.3123L8.92611 12.4327C8.90367 12.4111 8.88571 12.3852 8.87326 12.3566C8.86081 12.3281 8.85412 12.2973 8.85355 12.2661C8.85299 12.2349 8.85858 12.204 8.86999 12.1749C8.8814 12.1459 8.89841 12.1194 8.92006 12.097C8.94171 12.0746 8.96756 12.0566 8.99615 12.0442C9.02474 12.0317 9.05549 12.025 9.08667 12.0245C9.11784 12.0239 9.14882 12.0295 9.17784 12.0409C9.20686 12.0523 9.23334 12.0693 9.25578 12.091L10.1665 12.9705C10.2007 13.0033 10.2243 13.0457 10.2342 13.092C10.2441 13.1383 10.2399 13.1866 10.2222 13.2305C10.2045 13.2745 10.174 13.3121 10.1347 13.3386C10.0954 13.3651 10.0491 13.3792 10.0017 13.3791Z" fill="#4B4A4B"/>
<path d="M11.8224 15.1376C11.7613 15.1386 11.7022 15.1157 11.6576 15.0739L10.7468 14.1925C10.7244 14.1708 10.7064 14.1449 10.694 14.1163C10.6816 14.0876 10.6749 14.0568 10.6744 14.0256C10.6738 13.9944 10.6794 13.9634 10.6909 13.9344C10.7023 13.9054 10.7194 13.8789 10.7411 13.8564C10.7628 13.834 10.7887 13.816 10.8173 13.8036C10.8459 13.7912 10.8767 13.7845 10.9079 13.784C10.9391 13.7834 10.9701 13.7891 10.9992 13.8005C11.0282 13.812 11.0547 13.829 11.0771 13.8507L11.9872 14.7303C12.0212 14.7631 12.0445 14.8054 12.0543 14.8516C12.0641 14.8978 12.0599 14.9459 12.0422 14.9898C12.0245 15.0336 11.9941 15.0711 11.955 15.0976C11.9158 15.124 11.8696 15.1382 11.8224 15.1382V15.1376Z" fill="#4B4A4B"/>
<path d="M8.18074 11.6201C8.11917 11.6202 8.06 11.5962 8.0159 11.5532L7.10579 10.6737C7.06047 10.63 7.03438 10.57 7.03324 10.5071C7.03211 10.4441 7.05603 10.3833 7.09975 10.338C7.14347 10.2927 7.2034 10.2666 7.26636 10.2654C7.32932 10.2643 7.39015 10.2882 7.43547 10.3319L8.34621 11.2115C8.38039 11.2443 8.40396 11.2866 8.41388 11.333C8.42381 11.3793 8.41964 11.4275 8.40191 11.4715C8.38418 11.5154 8.3537 11.5531 8.31439 11.5796C8.27509 11.606 8.22876 11.6201 8.18137 11.6201H8.18074Z" fill="#4B4A4B"/>
<path d="M6.36008 9.86104C6.29835 9.86107 6.23901 9.83711 6.19461 9.79421L5.28451 8.91466C5.26206 8.89301 5.24411 8.86716 5.23166 8.83857C5.21921 8.80998 5.21251 8.77923 5.21195 8.74805C5.21139 8.71688 5.21698 8.6859 5.22839 8.65688C5.2398 8.62786 5.25681 8.60138 5.27846 8.57894C5.30011 8.5565 5.32596 8.53854 5.35455 8.52609C5.38313 8.51364 5.41389 8.50695 5.44507 8.50639C5.47624 8.50582 5.50722 8.51141 5.53624 8.52282C5.56525 8.53423 5.59174 8.55125 5.61418 8.57289L6.52492 9.45308C6.55887 9.48595 6.58224 9.52821 6.59204 9.57444C6.60184 9.62067 6.59761 9.66877 6.57991 9.71258C6.56221 9.7564 6.53183 9.79393 6.49267 9.82038C6.4535 9.84683 6.40734 9.86098 6.36008 9.86104Z" fill="#4B4A4B"/>
<path d="M4.53859 8.10187C4.4775 8.10266 4.41846 8.07987 4.37375 8.03823L3.46365 7.15868C3.41799 7.11454 3.39173 7.05407 3.39066 6.99057C3.38959 6.92707 3.41378 6.86575 3.45792 6.82009C3.50206 6.77443 3.56253 6.74818 3.62602 6.7471C3.68952 6.74603 3.75084 6.77022 3.7965 6.81436L4.70661 7.69392C4.74056 7.72679 4.76393 7.76904 4.77373 7.81527C4.78352 7.8615 4.7793 7.9096 4.7616 7.95342C4.74389 7.99723 4.71351 8.03477 4.67435 8.06121C4.63519 8.08766 4.58903 8.10182 4.54177 8.10187H4.53859Z" fill="#4B4A4B"/>
<path d="M2.71767 6.34265C2.65655 6.34357 2.59747 6.32075 2.55283 6.279L1.64209 5.39627C1.61969 5.37458 1.60178 5.34869 1.58939 5.32008C1.577 5.29147 1.57036 5.2607 1.56986 5.22953C1.56935 5.19835 1.575 5.16738 1.58646 5.13839C1.59793 5.1094 1.61499 5.08295 1.63668 5.06055C1.65837 5.03815 1.68426 5.02024 1.71287 5.00785C1.74147 4.99545 1.77225 4.98881 1.80342 4.98831C1.83459 4.98781 1.86556 4.99345 1.89456 5.00492C1.92355 5.01638 1.95 5.03345 1.9724 5.05514L2.8825 5.93469C2.91646 5.96756 2.93983 6.00981 2.94963 6.05604C2.95942 6.10227 2.9552 6.15038 2.93749 6.19419C2.91979 6.23801 2.88941 6.27554 2.85025 6.30199C2.81109 6.32843 2.76492 6.34259 2.71767 6.34265Z" fill="#4B4A4B"/>
<path d="M12.2125 13.9871C12.1931 13.987 12.1739 13.9845 12.1552 13.9794C12.125 13.972 12.0965 13.9586 12.0714 13.9402C12.0464 13.9217 12.0252 13.8985 12.0091 13.8718C11.993 13.8451 11.9824 13.8156 11.9777 13.7848C11.9731 13.754 11.9746 13.7226 11.9821 13.6924L12.2882 12.4641C12.3034 12.403 12.3423 12.3504 12.3962 12.3179C12.4502 12.2855 12.5148 12.2758 12.5759 12.2909C12.637 12.3061 12.6896 12.345 12.722 12.3989C12.7545 12.4529 12.7642 12.5175 12.749 12.5786L12.4429 13.8069C12.43 13.8583 12.4003 13.9039 12.3586 13.9365C12.3169 13.9692 12.2655 13.9869 12.2125 13.9871Z" fill="#4B4A4B"/>
<path d="M12.8249 11.5304C12.8056 11.5304 12.7863 11.5278 12.7677 11.5228C12.7374 11.5153 12.7088 11.502 12.6837 11.4835C12.6586 11.465 12.6374 11.4417 12.6213 11.4149C12.6052 11.3882 12.5946 11.3586 12.59 11.3277C12.5854 11.2968 12.5869 11.2654 12.5946 11.2351L12.9007 10.0068C12.9082 9.97653 12.9217 9.94806 12.9403 9.92301C12.9588 9.89795 12.9821 9.87679 13.0089 9.86075C13.0356 9.8447 13.0653 9.83408 13.0961 9.82949C13.127 9.8249 13.1584 9.82643 13.1887 9.83399C13.2189 9.84156 13.2474 9.85501 13.2724 9.87357C13.2975 9.89214 13.3187 9.91546 13.3347 9.9422C13.3508 9.96894 13.3614 9.99858 13.366 10.0294C13.3706 10.0603 13.369 10.0917 13.3615 10.122L13.0553 11.3503C13.0424 11.4017 13.0128 11.4473 12.9711 11.4799C12.9293 11.5125 12.8779 11.5303 12.8249 11.5304Z" fill="#4B4A4B"/>
<path d="M13.4371 9.07299C13.4178 9.07317 13.3985 9.07082 13.3798 9.06599C13.3496 9.05847 13.3211 9.04506 13.296 9.02653C13.271 9.00801 13.2498 8.98472 13.2337 8.95801C13.2176 8.9313 13.207 8.90168 13.2023 8.87085C13.1977 8.84001 13.1992 8.80857 13.2067 8.77832L13.5128 7.55C13.5204 7.51974 13.5338 7.49126 13.5523 7.46619C13.5708 7.44112 13.5941 7.41994 13.6208 7.40386C13.6475 7.38779 13.6772 7.37713 13.708 7.3725C13.7388 7.36788 13.7703 7.36936 13.8005 7.37689C13.8308 7.38441 13.8593 7.39782 13.8843 7.41634C13.9094 7.43487 13.9306 7.45816 13.9467 7.48487C13.9627 7.51158 13.9734 7.5412 13.978 7.57203C13.9826 7.60286 13.9812 7.6343 13.9736 7.66456L13.6675 8.89351C13.6546 8.94483 13.6249 8.99036 13.5832 9.02287C13.5414 9.05539 13.49 9.07303 13.4371 9.07299Z" fill="#4B4A4B"/>
<path d="M14.0494 6.61895C14.0301 6.61913 14.0108 6.61678 13.9921 6.61195C13.9619 6.60443 13.9334 6.59102 13.9083 6.57249C13.8833 6.55396 13.8621 6.53068 13.846 6.50397C13.8299 6.47725 13.8193 6.44764 13.8146 6.41681C13.81 6.38597 13.8115 6.35453 13.819 6.32428L14.1252 5.0915C14.1327 5.06125 14.1461 5.03277 14.1646 5.00769C14.1831 4.98262 14.2064 4.96144 14.2331 4.94537C14.2598 4.92929 14.2895 4.91864 14.3203 4.91401C14.3511 4.90938 14.3826 4.91087 14.4128 4.91839C14.4431 4.92591 14.4716 4.93932 14.4966 4.95785C14.5217 4.97638 14.5429 4.99966 14.559 5.02637C14.575 5.05309 14.5857 5.0827 14.5903 5.11353C14.5949 5.14436 14.5935 5.1758 14.5859 5.20606L14.2798 6.43438C14.268 6.48669 14.2388 6.53344 14.1969 6.56697C14.155 6.6005 14.103 6.61882 14.0494 6.61895Z" fill="#4B4A4B"/>
<path d="M14.6617 4.15966C14.6424 4.15984 14.6231 4.15749 14.6044 4.15266C14.5742 4.14514 14.5457 4.13173 14.5206 4.1132C14.4956 4.09468 14.4744 4.07139 14.4583 4.04468C14.4422 4.01797 14.4316 3.98835 14.4269 3.95752C14.4223 3.92668 14.4238 3.89524 14.4313 3.86499L14.7375 2.63667C14.7526 2.57556 14.7915 2.523 14.8454 2.49053C14.8722 2.47446 14.9018 2.4638 14.9326 2.45917C14.9634 2.45455 14.9949 2.45603 15.0251 2.46356C15.0554 2.47108 15.0839 2.48449 15.1089 2.50301C15.134 2.52154 15.1552 2.54483 15.1713 2.57154C15.1873 2.59825 15.198 2.62787 15.2026 2.6587C15.2072 2.68953 15.2058 2.72097 15.1982 2.75123L14.8921 3.97955C14.8794 4.03103 14.8498 4.07677 14.808 4.10943C14.7663 4.14208 14.7147 4.15977 14.6617 4.15966Z" fill="#4B4A4B"/>
<path d="M15.2687 1.70312C15.2493 1.7033 15.2301 1.70094 15.2114 1.69612C15.1811 1.68859 15.1526 1.67519 15.1276 1.65666C15.1025 1.63813 15.0813 1.61485 15.0652 1.58814C15.0492 1.56142 15.0385 1.53181 15.0339 1.50097C15.0293 1.47014 15.0307 1.4387 15.0383 1.40845L15.3444 0.180125C15.3596 0.119022 15.3984 0.0664559 15.4524 0.0339914C15.5063 0.00152687 15.571 -0.00817708 15.6321 0.00701432C15.6932 0.0222057 15.7457 0.0610481 15.7782 0.114996C15.8107 0.168945 15.8204 0.23358 15.8052 0.294683L15.499 1.523C15.4864 1.57449 15.4568 1.62023 15.415 1.65288C15.3732 1.68554 15.3217 1.70323 15.2687 1.70312Z" fill="#4B4A4B"/>
<path d="M3.47831 3.8976C3.42105 3.89741 3.36579 3.87653 3.32271 3.83881C3.27963 3.80109 3.25163 3.74907 3.24388 3.69234C3.23613 3.63561 3.24915 3.57799 3.28053 3.53009C3.31192 3.4822 3.35956 3.44727 3.41467 3.43173L4.63153 3.08296C4.6615 3.07435 4.69286 3.07173 4.72384 3.07524C4.75481 3.07876 4.78479 3.08834 4.81207 3.10344C4.83934 3.11853 4.86337 3.13886 4.88279 3.16325C4.90221 3.18763 4.91664 3.21561 4.92525 3.24557C4.93386 3.27553 4.93648 3.3069 4.93297 3.33787C4.92945 3.36885 4.91987 3.39883 4.90477 3.42611C4.88967 3.45338 4.86935 3.47741 4.84496 3.49683C4.82057 3.51625 4.7926 3.53068 4.76264 3.53929L3.54195 3.88805C3.52128 3.89416 3.49986 3.89737 3.47831 3.8976Z" fill="#4B4A4B"/>
<path d="M5.91023 3.19936C5.85336 3.19865 5.79863 3.17755 5.756 3.13989C5.71337 3.10223 5.68568 3.05052 5.67797 2.99416C5.67026 2.9378 5.68305 2.88055 5.71399 2.83283C5.74494 2.7851 5.79199 2.75008 5.84659 2.73412L7.06155 2.38472C7.09151 2.37611 7.12287 2.37349 7.15385 2.377C7.18483 2.38051 7.21481 2.39009 7.24208 2.40519C7.26936 2.42029 7.29339 2.44062 7.31281 2.465C7.33223 2.48939 7.34665 2.51737 7.35526 2.54733C7.36387 2.57729 7.36649 2.60866 7.36298 2.63963C7.35947 2.67061 7.34989 2.70059 7.33479 2.72786C7.31969 2.75514 7.29936 2.77917 7.27498 2.79859C7.25059 2.81801 7.22262 2.83243 7.19265 2.84104L5.97579 3.19045C5.95447 3.19653 5.9324 3.19953 5.91023 3.19936Z" fill="#4B4A4B"/>
<path d="M8.34383 2.50121C8.28695 2.50051 8.23222 2.4794 8.18959 2.44174C8.14696 2.40408 8.11928 2.35237 8.11157 2.29601C8.10386 2.23966 8.11664 2.18241 8.14759 2.13468C8.17853 2.08696 8.22559 2.05193 8.28018 2.03598L9.49705 1.68721C9.52701 1.6786 9.55838 1.67598 9.58935 1.67949C9.62033 1.683 9.65031 1.69258 9.67759 1.70768C9.70486 1.72278 9.72889 1.74311 9.74831 1.76749C9.76773 1.79188 9.78216 1.81986 9.79077 1.84982C9.79937 1.87978 9.802 1.91115 9.79848 1.94212C9.79497 1.9731 9.78539 2.00308 9.77029 2.03035C9.75519 2.05763 9.73487 2.08166 9.71048 2.10108C9.68609 2.1205 9.65812 2.13492 9.62816 2.14353L8.41129 2.4923C8.38936 2.49857 8.36663 2.50157 8.34383 2.50121Z" fill="#4B4A4B"/>
<path d="M1.04276 4.5956C0.985504 4.59541 0.930243 4.57453 0.887163 4.53681C0.844083 4.49909 0.816088 4.44707 0.808338 4.39034C0.800587 4.33361 0.813604 4.27598 0.844988 4.22809C0.876372 4.1802 0.924009 4.14526 0.97912 4.12973L2.19599 3.78096C2.22595 3.77235 2.25731 3.76973 2.28829 3.77324C2.31927 3.77675 2.34925 3.78633 2.37652 3.80143C2.40379 3.81653 2.42783 3.83686 2.44725 3.86124C2.46667 3.88563 2.48109 3.91361 2.4897 3.94357C2.49831 3.97353 2.50093 4.0049 2.49742 4.03587C2.49391 4.06685 2.48433 4.09683 2.46923 4.1241C2.45413 4.15138 2.4338 4.17541 2.40942 4.19483C2.38503 4.21425 2.35705 4.22868 2.32709 4.23728L1.10832 4.58605C1.08703 4.59233 1.06496 4.59555 1.04276 4.5956Z" fill="#4B4A4B"/>
<path d="M10.7776 1.8036C10.7204 1.80342 10.6651 1.78254 10.622 1.74482C10.5789 1.7071 10.551 1.65508 10.5432 1.59835C10.5355 1.54161 10.5485 1.48399 10.5799 1.4361C10.6112 1.38821 10.6589 1.35327 10.714 1.33773L11.9308 0.988967C11.9608 0.980358 11.9922 0.977735 12.0232 0.981248C12.0541 0.984761 12.0841 0.994341 12.1114 1.00944C12.1387 1.02454 12.1627 1.04486 12.1821 1.06925C12.2015 1.09364 12.216 1.12161 12.2246 1.15158C12.2332 1.18154 12.2358 1.2129 12.2323 1.24388C12.2288 1.27486 12.2192 1.30484 12.2041 1.33211C12.189 1.35939 12.1687 1.38342 12.1443 1.40284C12.1199 1.42226 12.0919 1.43668 12.062 1.44529L10.8451 1.79406C10.8232 1.80052 10.8005 1.80374 10.7776 1.8036Z" fill="#4B4A4B"/>
<path d="M13.2112 1.10561C13.154 1.10542 13.0987 1.08454 13.0556 1.04682C13.0125 1.0091 12.9845 0.957082 12.9768 0.900349C12.969 0.843617 12.9821 0.785994 13.0134 0.738102C13.0448 0.69021 13.0925 0.655275 13.1476 0.639735L14.3613 0.290969C14.3912 0.28236 14.4226 0.279737 14.4536 0.28325C14.4845 0.286763 14.5145 0.296343 14.5418 0.311443C14.5691 0.326542 14.5931 0.346866 14.6125 0.371254C14.6319 0.395641 14.6464 0.423615 14.655 0.453578C14.6636 0.483541 14.6662 0.514905 14.6627 0.545882C14.6592 0.576858 14.6496 0.606839 14.6345 0.634113C14.6194 0.661387 14.5991 0.68542 14.5747 0.704839C14.5503 0.724259 14.5223 0.738685 14.4924 0.747293L13.2793 1.09606C13.2572 1.10254 13.2343 1.10576 13.2112 1.10561Z" fill="#4B4A4B"/>
<path d="M4.2083 4.08909C4.66574 4.0882 5.10871 3.92874 5.46177 3.63789C5.81483 3.34703 6.05613 2.94277 6.14456 2.49396C6.233 2.04516 6.16309 1.57958 5.94676 1.17653C5.73043 0.773479 5.38106 0.457899 4.95815 0.283547C4.53525 0.109195 4.06498 0.0868566 3.62745 0.220337C3.18992 0.353818 2.81221 0.634861 2.55864 1.01559C2.30508 1.39632 2.19136 1.85318 2.23686 2.30835C2.28235 2.76351 2.48424 3.18883 2.80814 3.51184C2.992 3.69554 3.21035 3.8411 3.45063 3.94016C3.69091 4.03922 3.9484 4.08984 4.2083 4.08909Z" fill="#FFC853"/>
<path d="M4.20651 4.15394C3.73355 4.157 3.27426 3.99535 2.90748 3.69672C2.5407 3.3981 2.28929 2.98112 2.1964 2.51736C2.10351 2.05359 2.17494 1.57196 2.39842 1.15511C2.6219 0.738258 2.98349 0.412189 3.42115 0.232858C3.69889 0.119064 3.99834 0.0680642 4.29809 0.0835088C4.59784 0.0989534 4.89046 0.18046 5.15503 0.322197C5.4196 0.463934 5.64957 0.662397 5.82849 0.903385C6.00741 1.14437 6.13085 1.42193 6.18998 1.71619C6.2491 2.01045 6.24246 2.31415 6.17052 2.60554C6.09858 2.89694 5.96313 3.16883 5.77384 3.40176C5.58456 3.6347 5.34613 3.82291 5.07562 3.95295C4.80511 4.08298 4.5092 4.15162 4.20906 4.15394H4.20651ZM4.20206 0.208037C3.82508 0.209121 3.45686 0.321777 3.1438 0.531807C2.83075 0.741837 2.58688 1.03984 2.44293 1.38825C2.29897 1.73667 2.26138 2.1199 2.33489 2.48964C2.4084 2.85939 2.58972 3.1991 2.856 3.46595C3.0331 3.64356 3.24362 3.78433 3.47542 3.88013C3.70722 3.97593 3.9557 4.02486 4.20651 4.02411C4.67985 4.02253 5.13573 3.84519 5.4857 3.5265C5.83567 3.2078 6.05479 2.77047 6.10054 2.29935C6.14628 1.82822 6.0154 1.3569 5.73329 0.976827C5.45117 0.596751 5.03793 0.335017 4.57374 0.242404C4.4513 0.218364 4.32683 0.206215 4.20206 0.206128V0.208037Z" fill="#FFC853"/>
<path d="M9.67703 9.16462C10.3546 9.16347 11.0074 8.91034 11.5086 8.45447C12.0099 7.9986 12.3236 7.37259 12.3888 6.69821C12.454 6.02383 12.266 5.34932 11.8614 4.80587C11.4568 4.26243 10.8645 3.88891 10.1998 3.75799C9.53501 3.62706 8.84532 3.74809 8.26487 4.09753C7.68441 4.44697 7.2547 4.99983 7.05931 5.64857C6.86392 6.2973 6.91683 6.99552 7.20775 7.6074C7.49867 8.21929 8.00679 8.70108 8.63328 8.95905C8.96436 9.09533 9.319 9.16518 9.67703 9.16462Z" fill="#FFC853"/>
<path d="M9.67058 9.22838C8.93272 9.22753 8.2254 8.93372 7.7041 8.41153C7.1828 7.88934 6.8902 7.18151 6.89063 6.44365C6.89105 5.7058 7.18446 4.9983 7.70635 4.47671C8.22824 3.95511 8.9359 3.66211 9.67376 3.66211C10.4116 3.66211 11.1193 3.95511 11.6412 4.47671C12.1631 4.9983 12.4565 5.7058 12.4569 6.44365C12.4573 7.18151 12.1647 7.88934 11.6434 8.41153C11.1221 8.93372 10.4148 9.22753 9.67694 9.22838H9.67058ZM9.67058 3.77157C8.97122 3.78238 8.30417 4.06779 7.81343 4.56617C7.32269 5.06456 7.04763 5.73594 7.04763 6.43538C7.04763 7.13481 7.32269 7.8062 7.81343 8.30458C8.30417 8.80297 8.97122 9.08837 9.67058 9.09918H9.67631C10.3757 9.08749 11.0424 8.80123 11.5325 8.30219C12.0226 7.80316 12.2968 7.13139 12.2959 6.43193C12.295 5.73247 12.019 5.06143 11.5276 4.56368C11.0362 4.06594 10.3687 3.78143 9.6693 3.77157H9.67058Z" fill="#FFC853"/>
<path d="M15.6157 4.84138C15.877 4.84112 16.1303 4.75023 16.3321 4.58419C16.534 4.41816 16.672 4.18726 16.7228 3.93085C16.7735 3.67443 16.7337 3.40837 16.6102 3.178C16.4867 2.94763 16.2872 2.76721 16.0455 2.66748C15.8039 2.56776 15.5352 2.5549 15.2852 2.63111C15.0352 2.70731 14.8193 2.86786 14.6744 3.08539C14.5295 3.30292 14.4645 3.56397 14.4905 3.82405C14.5165 4.08414 14.6318 4.32716 14.8169 4.5117C14.9219 4.61644 15.0464 4.69946 15.1835 4.75602C15.3205 4.81259 15.4674 4.8416 15.6157 4.84138Z" fill="#FFC853"/>
<path d="M15.6144 4.90625C15.3288 4.90652 15.0526 4.80418 14.8361 4.61787C14.6196 4.43156 14.4773 4.17368 14.435 3.89121C14.3927 3.60874 14.4533 3.32049 14.6058 3.07895C14.7582 2.83742 14.9923 2.65869 15.2655 2.57532C15.5387 2.49195 15.8327 2.5095 16.0941 2.62475C16.3554 2.74001 16.5666 2.94531 16.6893 3.20325C16.8119 3.46119 16.8378 3.75461 16.7622 4.03005C16.6867 4.30549 16.5147 4.54462 16.2776 4.70387C16.0817 4.83597 15.8507 4.90645 15.6144 4.90625ZM15.6144 2.65072C15.337 2.65751 15.0731 2.77251 14.8793 2.97115C14.6855 3.16979 14.5769 3.43634 14.5769 3.71389C14.5769 3.99144 14.6855 4.25799 14.8793 4.45663C15.0731 4.65528 15.337 4.77027 15.6144 4.77706C15.8255 4.77679 16.0317 4.71388 16.2069 4.59631C16.3805 4.47837 16.5154 4.31181 16.5946 4.11752C16.6739 3.92323 16.694 3.70987 16.6524 3.50419C16.6108 3.2989 16.5095 3.11049 16.3612 2.96261C16.2128 2.81473 16.0241 2.71398 15.8187 2.673C15.7507 2.65865 15.6814 2.65119 15.6119 2.65072H15.6144Z" fill="#FFC853"/>
<path d="M7.50742 15.1789C7.92733 15.1778 8.33179 15.0205 8.64215 14.7376C8.95251 14.4548 9.14658 14.0666 9.18662 13.6486C9.22666 13.2306 9.10981 12.8127 8.8588 12.4761C8.60778 12.1394 8.24054 11.9082 7.82849 11.8273C7.41644 11.7465 6.98904 11.8217 6.62941 12.0385C6.26978 12.2553 6.00362 12.598 5.8827 13.0002C5.76177 13.4023 5.79473 13.835 5.97516 14.2142C6.15558 14.5933 6.47058 14.8919 6.85889 15.0517C7.06457 15.1364 7.28497 15.1797 7.50742 15.1789Z" fill="#FFC853"/>
<path d="M7.50514 15.2438C7.08404 15.2443 6.67677 15.0935 6.35755 14.8189C6.03832 14.5442 5.82839 14.164 5.76598 13.7476C5.70358 13.3311 5.79286 12.9061 6.01756 12.55C6.24226 12.1938 6.58743 11.9303 6.99018 11.8073C7.39293 11.6843 7.82646 11.7101 8.21178 11.88C8.59709 12.0499 8.90856 12.3525 9.08943 12.7328C9.2703 13.1131 9.30854 13.5457 9.19717 13.9518C9.08581 14.3579 8.83226 14.7105 8.48271 14.9454C8.19398 15.1403 7.8535 15.2442 7.50514 15.2438ZM7.50514 11.8605C7.07919 11.8695 6.67373 12.045 6.37582 12.3496C6.0779 12.6542 5.91131 13.0634 5.91181 13.4895C5.91231 13.9155 6.07986 14.3244 6.37849 14.6282C6.67711 14.9321 7.08299 15.1067 7.50896 15.1146C7.93492 15.1055 8.3403 14.9297 8.63805 14.6249C8.93579 14.3202 9.10216 13.9108 9.10141 13.4848C9.10066 13.0587 8.93285 12.65 8.63404 12.3463C8.33522 12.0426 7.92922 11.8682 7.50323 11.8605H7.50514Z" fill="#FFC853"/>
<path d="M4.24756 1.75452L3.84814 2.26465L9.63895 6.79869L10.0384 6.28856L4.24756 1.75452Z" fill="#FFC853"/>
<path d="M15.784 3.28598L9.15723 6.177L9.4163 6.77084L16.043 3.87982L15.784 3.28598Z" fill="#FFC853"/>
<path d="M9.35518 5.94685L7.48975 12.8845L8.11541 13.0528L9.98085 6.11508L9.35518 5.94685Z" fill="#FFC853"/>
</g>
<defs>
<clipPath id="clip0_28_20054">
<rect width="16" height="15.2439" fill="white" transform="translate(0.805176)"/>
</clipPath>
</defs>
</svg>
