<svg width="1512" height="982" viewBox="0 0 1512 982" fill="none" xmlns="http://www.w3.org/2000/svg">
<path d="M233.779 291.326C247.119 286.338 260.855 297.661 258.505 311.707L245.357 390.289C243.007 404.335 226.333 410.57 215.344 401.511L153.864 350.834C142.875 341.776 145.812 324.218 159.151 319.23L233.779 291.326Z" stroke="#DEDEDE"/>
<path d="M643.583 291.326C656.922 286.338 670.659 297.661 668.309 311.707L655.161 390.289C652.811 404.335 636.137 410.57 625.148 401.511L563.667 350.834C552.678 341.776 555.616 324.218 568.955 319.23L643.583 291.326Z" stroke="#DEDEDE"/>
<path d="M890.675 97.9532C904.015 92.9654 917.751 104.288 915.401 118.334L902.253 196.916C899.903 210.962 883.229 217.197 872.24 208.139L810.76 157.462C799.771 148.403 802.708 130.846 816.047 125.858L890.675 97.9532Z" stroke="#DEDEDE"/>
<path d="M1131.01 -80.6235C1144.35 -85.6113 1158.09 -74.2885 1155.74 -60.2424L1142.59 18.3396C1140.24 32.3857 1123.56 38.6204 1112.57 29.5622L1051.09 -21.1152C1040.11 -30.1734 1043.04 -47.731 1056.38 -52.7188L1131.01 -80.6235Z" stroke="#DEDEDE"/>
<path d="M85.3028 548.177C98.6421 543.189 112.379 554.512 110.029 568.558L96.8807 647.14C94.5307 661.186 77.8565 667.421 66.8673 658.363L5.38721 607.686C-5.602 598.627 -2.66439 581.07 10.6749 576.082L85.3028 548.177Z" stroke="#DEDEDE"/>
<path d="M660.261 833.804C673.601 828.816 687.337 840.139 684.987 854.185L671.839 932.767C669.489 946.813 652.815 953.047 641.826 943.989L580.346 893.312C569.356 884.254 572.294 866.696 585.633 861.708L660.261 833.804Z" stroke="#DEDEDE"/>
<path d="M1070.07 833.804C1083.4 828.816 1097.14 840.139 1094.79 854.185L1081.64 932.767C1079.29 946.813 1062.62 953.047 1051.63 943.989L990.15 893.312C979.161 884.254 982.098 866.696 995.438 861.708L1070.07 833.804Z" stroke="#DEDEDE"/>
<path d="M1317.16 640.431C1330.5 635.443 1344.23 646.766 1341.88 660.812L1328.74 739.394C1326.39 753.44 1309.71 759.675 1298.72 750.617L1237.24 699.94C1226.25 690.881 1229.19 673.324 1242.53 668.336L1317.16 640.431Z" stroke="#DEDEDE"/>
<path d="M1557.49 461.855C1570.83 456.867 1584.57 468.19 1582.22 482.236L1569.07 560.818C1566.72 574.864 1550.05 581.098 1539.06 572.04L1477.58 521.363C1466.59 512.305 1469.52 494.747 1482.86 489.759L1557.49 461.855Z" stroke="#DEDEDE"/>
<path d="M12.5338 68.0252C25.8731 63.0374 39.6096 74.3602 37.2595 88.4063L24.1117 166.988C21.7616 181.034 5.08749 187.269 -5.90171 178.211L-67.3818 127.534C-78.371 118.475 -75.4334 100.918 -62.0941 95.9299L12.5338 68.0252Z" stroke="#DEDEDE"/>
<path d="M422.338 68.0252C435.677 63.0374 449.414 74.3602 447.064 88.4063L433.916 166.988C431.566 181.034 414.892 187.269 403.902 178.211L342.422 127.534C331.433 118.475 334.371 100.918 347.71 95.9299L422.338 68.0252Z" stroke="#DEDEDE"/>
<path d="M669.43 -125.347C682.769 -130.335 696.506 -119.012 694.155 -104.966L681.008 -26.384C678.658 -12.338 661.983 -6.1032 650.994 -15.1615L589.514 -65.8388C578.525 -74.8971 581.463 -92.4546 594.802 -97.4424L669.43 -125.347Z" stroke="#DEDEDE"/>
<path d="M439.016 610.503C452.355 605.515 466.092 616.838 463.742 630.884L450.594 709.466C448.244 723.512 431.57 729.747 420.581 720.689L359.101 670.012C348.111 660.953 351.049 643.396 364.388 638.408L439.016 610.503Z" stroke="#DEDEDE"/>
<path d="M848.82 610.503C862.159 605.515 875.896 616.838 873.546 630.884L860.398 709.466C858.048 723.512 841.374 729.747 830.384 720.689L768.904 670.012C757.915 660.953 760.853 643.396 774.192 638.408L848.82 610.503Z" stroke="#DEDEDE"/>
<path d="M1095.91 417.131C1109.25 412.143 1122.99 423.466 1120.64 437.512L1107.49 516.094C1105.14 530.14 1088.47 536.375 1077.48 527.317L1016 476.639C1005.01 467.581 1007.94 450.023 1021.28 445.036L1095.91 417.131Z" stroke="#DEDEDE"/>
<path d="M1336.25 238.554C1349.59 233.566 1363.32 244.889 1360.97 258.935L1347.82 337.517C1345.47 351.563 1328.8 357.798 1317.81 348.74L1256.33 298.063C1245.34 289.004 1248.28 271.447 1261.62 266.459L1336.25 238.554Z" stroke="#DEDEDE"/>
<path d="M290.54 867.355C303.879 862.367 317.615 873.69 315.265 887.736L302.118 966.318C299.767 980.364 283.093 986.599 272.104 977.541L210.624 926.863C199.635 917.805 202.572 900.248 215.912 895.26L290.54 867.355Z" stroke="#DEDEDE"/>
<path d="M398.584 377.6C402.814 373.4 410.003 375.355 411.525 381.117L420.35 414.536C421.872 420.299 416.585 425.548 410.833 423.984L377.479 414.918C371.728 413.354 369.825 406.151 374.055 401.952L398.584 377.6Z" stroke="#DEDEDE"/>
<path d="M808.388 377.6C812.617 373.4 819.807 375.355 821.328 381.117L830.154 414.536C831.675 420.299 826.388 425.548 820.637 423.984L787.283 414.918C781.531 413.354 779.629 406.151 783.859 401.952L808.388 377.6Z" stroke="#DEDEDE"/>
<path d="M1055.48 184.227C1059.71 180.028 1066.9 181.982 1068.42 187.745L1077.25 221.164C1078.77 226.926 1073.48 232.175 1067.73 230.612L1034.38 221.545C1028.62 219.982 1026.72 212.779 1030.95 208.579L1055.48 184.227Z" stroke="#DEDEDE"/>
<path d="M1295.81 5.65073C1300.04 1.45148 1307.23 3.40575 1308.76 9.16841L1317.58 42.587C1319.1 48.3496 1313.81 53.5987 1308.06 52.0353L1274.71 42.9688C1268.96 41.4054 1267.06 34.2021 1271.29 30.0028L1295.81 5.65073Z" stroke="#DEDEDE"/>
<path d="M250.107 634.452C254.337 630.252 261.526 632.207 263.048 637.969L271.873 671.388C273.395 677.15 268.108 682.399 262.356 680.836L229.003 671.77C223.251 670.206 221.349 663.003 225.578 658.804L250.107 634.452Z" stroke="#DEDEDE"/>
<path d="M825.066 920.078C829.295 915.878 836.485 917.833 838.007 923.595L846.832 957.014C848.354 962.777 843.066 968.026 837.315 966.462L803.961 957.396C798.21 955.832 796.307 948.629 800.537 944.43L825.066 920.078Z" stroke="#DEDEDE"/>
<path d="M1234.87 920.078C1239.1 915.878 1246.29 917.833 1247.81 923.595L1256.64 957.014C1258.16 962.777 1252.87 968.026 1247.12 966.462L1213.77 957.396C1208.01 955.832 1206.11 948.629 1210.34 944.43L1234.87 920.078Z" stroke="#DEDEDE"/>
<path d="M1481.96 726.705C1486.19 722.506 1493.38 724.46 1494.9 730.223L1503.73 763.642C1505.25 769.404 1499.96 774.653 1494.21 773.09L1460.86 764.023C1455.11 762.46 1453.2 755.257 1457.43 751.057L1481.96 726.705Z" stroke="#DEDEDE"/>
<path d="M177.338 154.299C181.568 150.1 188.757 152.054 190.279 157.817L199.104 191.236C200.626 196.998 195.339 202.247 189.587 200.684L156.234 191.617C150.482 190.054 148.58 182.851 152.809 178.651L177.338 154.299Z" stroke="#DEDEDE"/>
<path d="M587.142 154.299C591.372 150.1 598.562 152.054 600.083 157.817L608.908 191.236C610.43 196.998 605.143 202.247 599.392 200.684L566.038 191.617C560.286 190.054 558.384 182.851 562.614 178.651L587.142 154.299Z" stroke="#DEDEDE"/>
<path d="M834.234 -39.0729C838.464 -43.2722 845.653 -41.3179 847.175 -35.5552L856 -2.13666C857.522 3.626 852.235 8.87507 846.483 7.31166L813.13 -1.75483C807.378 -3.31824 805.476 -10.5216 809.705 -14.7208L834.234 -39.0729Z" stroke="#DEDEDE"/>
<path d="M28.8616 411.151C33.0914 406.952 40.2808 408.906 41.8026 414.669L50.6277 448.087C52.1495 453.85 46.8623 459.099 41.1108 457.536L7.75695 448.469C2.00543 446.906 0.103175 439.703 4.33289 435.503L28.8616 411.151Z" stroke="#DEDEDE"/>
<path d="M603.821 696.777C608.05 692.578 615.24 694.532 616.762 700.295L625.587 733.714C627.108 739.476 621.821 744.725 616.07 743.162L582.716 734.096C576.964 732.532 575.062 725.329 579.292 721.13L603.821 696.777Z" stroke="#DEDEDE"/>
<path d="M1013.62 696.777C1017.85 692.578 1025.04 694.532 1026.57 700.295L1035.39 733.714C1036.91 739.476 1031.63 744.725 1025.87 743.162L992.52 734.096C986.769 732.532 984.866 725.329 989.096 721.13L1013.62 696.777Z" stroke="#DEDEDE"/>
<path d="M1260.72 503.405C1264.95 499.206 1272.14 501.16 1273.66 506.923L1282.48 540.341C1284 546.104 1278.72 551.353 1272.97 549.79L1239.61 540.723C1233.86 539.16 1231.96 531.956 1236.19 527.757L1260.72 503.405Z" stroke="#DEDEDE"/>
<path d="M1501.05 324.828C1505.28 320.629 1512.47 322.583 1513.99 328.346L1522.82 361.765C1524.34 367.527 1519.05 372.776 1513.3 371.213L1479.95 362.147C1474.19 360.583 1472.29 353.38 1476.52 349.181L1501.05 324.828Z" stroke="#DEDEDE"/>
<path d="M455.344 953.629C459.574 949.43 466.763 951.384 468.285 957.147L477.11 990.565C478.632 996.328 473.345 1001.58 467.593 1000.01L434.239 990.947C428.488 989.384 426.586 982.181 430.815 977.981L455.344 953.629Z" stroke="#DEDEDE"/>
<path d="M254.556 495.477C255.043 489.536 261.778 486.351 266.679 489.743L295.099 509.415C300 512.807 299.391 520.232 294.003 522.78L262.757 537.557C257.369 540.105 251.243 535.865 251.73 529.925L254.556 495.477Z" stroke="#DEDEDE"/>
<path d="M664.36 495.477C664.847 489.536 671.582 486.351 676.483 489.743L704.904 509.415C709.804 512.807 709.195 520.232 703.807 522.78L672.561 537.557C667.173 540.105 661.047 535.865 661.534 529.925L664.36 495.477Z" stroke="#DEDEDE"/>
<path d="M911.452 302.104C911.939 296.164 918.674 292.979 923.575 296.371L951.995 316.042C956.896 319.434 956.287 326.86 950.899 329.408L919.653 344.185C914.265 346.733 908.139 342.493 908.626 336.553L911.452 302.104Z" stroke="#DEDEDE"/>
<path d="M1151.79 123.528C1152.27 117.587 1159.01 114.402 1163.91 117.794L1192.33 137.466C1197.23 140.858 1196.62 148.283 1191.23 150.831L1159.99 165.608C1154.6 168.156 1148.47 163.916 1148.96 157.976L1151.79 123.528Z" stroke="#DEDEDE"/>
<path d="M106.079 752.328C106.567 746.388 113.302 743.203 118.202 746.595L146.623 766.266C151.524 769.658 150.915 777.084 145.527 779.632L114.281 794.409C108.892 796.957 102.766 792.717 103.254 786.777L106.079 752.328Z" stroke="#DEDEDE"/>
<path d="M1337.93 844.582C1338.42 838.642 1345.16 835.457 1350.06 838.849L1378.48 858.52C1383.38 861.912 1382.77 869.338 1377.38 871.886L1346.14 886.663C1340.75 889.211 1334.62 884.971 1335.11 879.031L1337.93 844.582Z" stroke="#DEDEDE"/>
<path d="M33.3108 272.176C33.7981 266.236 40.5331 263.051 45.4339 266.443L73.8544 286.114C78.7552 289.506 78.1461 296.932 72.7581 299.48L41.512 314.257C36.1239 316.805 29.9979 312.565 30.4852 306.625L33.3108 272.176Z" stroke="#DEDEDE"/>
<path d="M443.115 272.176C443.602 266.236 450.337 263.051 455.238 266.443L483.658 286.114C488.559 289.506 487.95 296.932 482.562 299.48L451.316 314.257C445.928 316.805 439.802 312.565 440.289 306.625L443.115 272.176Z" stroke="#DEDEDE"/>
<path d="M690.206 78.8039C690.694 72.8637 697.429 69.6785 702.329 73.0706L730.75 92.7419C735.651 96.134 735.042 103.559 729.654 106.108L698.407 120.885C693.019 123.433 686.893 119.193 687.381 113.252L690.206 78.8039Z" stroke="#DEDEDE"/>
<path d="M459.793 814.654C460.28 808.714 467.015 805.529 471.916 808.921L500.336 828.592C505.237 831.984 504.628 839.41 499.24 841.958L467.994 856.735C462.606 859.283 456.48 855.043 456.967 849.103L459.793 814.654Z" stroke="#DEDEDE"/>
<path d="M869.597 814.654C870.084 808.714 876.819 805.529 881.72 808.921L910.141 828.592C915.041 831.984 914.432 839.41 909.044 841.958L877.798 856.735C872.41 859.283 866.284 855.043 866.771 849.103L869.597 814.654Z" stroke="#DEDEDE"/>
<path d="M1116.69 621.282C1117.18 615.342 1123.91 612.156 1128.81 615.549L1157.23 635.22C1162.13 638.612 1161.52 646.037 1156.14 648.586L1124.89 663.363C1119.5 665.911 1113.38 661.671 1113.86 655.73L1116.69 621.282Z" stroke="#DEDEDE"/>
<path d="M1357.02 442.705C1357.51 436.765 1364.25 433.58 1369.15 436.972L1397.57 456.643C1402.47 460.035 1401.86 467.461 1396.47 470.009L1365.22 484.786C1359.84 487.334 1353.71 483.094 1354.2 477.154L1357.02 442.705Z" stroke="#DEDEDE"/>
<path d="M338.422 256.979C336.459 259.485 332.519 258.927 331.33 255.974L324.069 237.943C322.88 234.989 325.334 231.857 328.486 232.303L347.732 235.031C350.884 235.478 352.37 239.169 350.407 241.676L338.422 256.979Z" stroke="#DEDEDE"/>
<path d="M748.226 256.979C746.263 259.485 742.323 258.927 741.134 255.974L733.873 237.943C732.684 234.989 735.138 231.857 738.29 232.303L757.536 235.031C760.688 235.478 762.174 239.169 760.211 241.676L748.226 256.979Z" stroke="#DEDEDE"/>
<path d="M995.318 63.6068C993.355 66.1131 989.415 65.5547 988.226 62.6016L980.965 44.5702C979.776 41.6172 982.23 38.4843 985.382 38.931L1004.63 41.6589C1007.78 42.1056 1009.27 45.797 1007.3 48.3033L995.318 63.6068Z" stroke="#DEDEDE"/>
<path d="M189.945 513.831C187.982 516.337 184.042 515.779 182.853 512.826L175.593 494.794C174.404 491.841 176.857 488.708 180.009 489.155L199.255 491.883C202.407 492.33 203.893 496.021 201.931 498.527L189.945 513.831Z" stroke="#DEDEDE"/>
<path d="M764.904 799.457C762.941 801.963 759.001 801.405 757.812 798.452L750.552 780.421C749.363 777.468 751.816 774.335 754.968 774.781L774.214 777.509C777.366 777.956 778.852 781.647 776.89 784.154L764.904 799.457Z" stroke="#DEDEDE"/>
<path d="M1174.71 799.457C1172.75 801.963 1168.81 801.405 1167.62 798.452L1160.36 780.421C1159.17 777.468 1161.62 774.335 1164.77 774.781L1184.02 777.509C1187.17 777.956 1188.66 781.647 1186.69 784.154L1174.71 799.457Z" stroke="#DEDEDE"/>
<path d="M1421.8 606.085C1419.84 608.591 1415.9 608.033 1414.71 605.08L1407.45 587.048C1406.26 584.095 1408.71 580.962 1411.86 581.409L1431.11 584.137C1434.26 584.584 1435.75 588.275 1433.79 590.781L1421.8 606.085Z" stroke="#DEDEDE"/>
<path d="M117.177 33.6788C115.214 36.1851 111.274 35.6267 110.085 32.6736L102.824 14.6423C101.635 11.6892 104.089 8.55631 107.241 9.00305L126.487 11.7309C129.639 12.1776 131.125 15.869 129.162 18.3753L117.177 33.6788Z" stroke="#DEDEDE"/>
<path d="M526.98 33.6788C525.017 36.1851 521.078 35.6267 519.888 32.6736L512.628 14.6423C511.439 11.6892 513.892 8.55631 517.044 9.00305L536.29 11.7309C539.442 12.1776 540.929 15.869 538.966 18.3753L526.98 33.6788Z" stroke="#DEDEDE"/>
<path d="M543.659 576.157C541.696 578.663 537.756 578.105 536.567 575.152L529.306 557.12C528.117 554.167 530.571 551.034 533.723 551.481L552.968 554.209C556.12 554.656 557.607 558.347 555.644 560.853L543.659 576.157Z" stroke="#DEDEDE"/>
<path d="M953.463 576.157C951.5 578.663 947.56 578.105 946.371 575.152L939.11 557.12C937.921 554.167 940.375 551.034 943.527 551.481L962.773 554.209C965.925 554.656 967.411 558.347 965.448 560.853L953.463 576.157Z" stroke="#DEDEDE"/>
<path d="M1200.55 382.785C1198.59 385.291 1194.65 384.732 1193.46 381.779L1186.2 363.748C1185.01 360.795 1187.47 357.662 1190.62 358.109L1209.86 360.837C1213.02 361.283 1214.5 364.975 1212.54 367.481L1200.55 382.785Z" stroke="#DEDEDE"/>
<path d="M1440.89 204.208C1438.93 206.714 1434.99 206.156 1433.8 203.202L1426.54 185.171C1425.35 182.218 1427.8 179.085 1430.95 179.532L1450.2 182.26C1453.35 182.706 1454.84 186.398 1452.87 188.904L1440.89 204.208Z" stroke="#DEDEDE"/>
<path d="M395.182 833.009C393.219 835.515 389.279 834.957 388.09 832.003L380.829 813.972C379.64 811.019 382.094 807.886 385.246 808.333L404.492 811.061C407.644 811.507 409.13 815.199 407.167 817.705L395.182 833.009Z" stroke="#DEDEDE"/>
<g filter="url(#filter0_i_131_1818)">
<circle cx="160" cy="802" r="247" fill="url(#paint0_radial_131_1818)"/>
<circle cx="160" cy="802" r="247" fill="url(#paint1_radial_131_1818)" fill-opacity="0.7"/>
</g>
<circle cx="160" cy="802" r="246.5" stroke="#473000" stroke-opacity="0.12" style="mix-blend-mode:darken"/>
<g filter="url(#filter1_if_131_1818)">
<circle cx="1498" cy="101.222" r="115" fill="url(#paint2_radial_131_1818)"/>
<circle cx="1498" cy="101.222" r="115" fill="url(#paint3_radial_131_1818)" fill-opacity="0.7"/>
<circle cx="1498" cy="101.222" r="114.5" stroke="#473000" stroke-opacity="0.12" style="mix-blend-mode:darken"/>
</g>
<g filter="url(#filter2_if_131_1818)">
<circle cx="1346.5" cy="683.5" r="52.5" fill="url(#paint4_radial_131_1818)"/>
<circle cx="1346.5" cy="683.5" r="52.5" fill="url(#paint5_radial_131_1818)" fill-opacity="0.7"/>
<circle cx="1346.5" cy="683.5" r="52" stroke="#473000" stroke-opacity="0.12" style="mix-blend-mode:darken"/>
</g>
<circle cx="768.422" cy="438.423" r="427.771" fill="url(#paint6_radial_131_1818)"/>
<defs>
<filter id="filter0_i_131_1818" x="-87" y="555" width="494" height="494" filterUnits="userSpaceOnUse" color-interpolation-filters="sRGB">
<feFlood flood-opacity="0" result="BackgroundImageFix"/>
<feBlend mode="normal" in="SourceGraphic" in2="BackgroundImageFix" result="shape"/>
<feColorMatrix in="SourceAlpha" type="matrix" values="0 0 0 0 0 0 0 0 0 0 0 0 0 0 0 0 0 0 127 0" result="hardAlpha"/>
<feOffset/>
<feGaussianBlur stdDeviation="36.85"/>
<feComposite in2="hardAlpha" operator="arithmetic" k2="-1" k3="1"/>
<feColorMatrix type="matrix" values="0 0 0 0 1 0 0 0 0 0.656334 0 0 0 0 0.252901 0 0 0 0.7 0"/>
<feBlend mode="normal" in2="shape" result="effect1_innerShadow_131_1818"/>
</filter>
<filter id="filter1_if_131_1818" x="1375.3" y="-21.4783" width="245.4" height="245.4" filterUnits="userSpaceOnUse" color-interpolation-filters="sRGB">
<feFlood flood-opacity="0" result="BackgroundImageFix"/>
<feBlend mode="normal" in="SourceGraphic" in2="BackgroundImageFix" result="shape"/>
<feColorMatrix in="SourceAlpha" type="matrix" values="0 0 0 0 0 0 0 0 0 0 0 0 0 0 0 0 0 0 127 0" result="hardAlpha"/>
<feOffset/>
<feGaussianBlur stdDeviation="36.85"/>
<feComposite in2="hardAlpha" operator="arithmetic" k2="-1" k3="1"/>
<feColorMatrix type="matrix" values="0 0 0 0 1 0 0 0 0 0.656334 0 0 0 0 0.252901 0 0 0 0.7 0"/>
<feBlend mode="normal" in2="shape" result="effect1_innerShadow_131_1818"/>
<feGaussianBlur stdDeviation="3.85" result="effect2_foregroundBlur_131_1818"/>
</filter>
<filter id="filter2_if_131_1818" x="1274.5" y="611.5" width="144" height="144" filterUnits="userSpaceOnUse" color-interpolation-filters="sRGB">
<feFlood flood-opacity="0" result="BackgroundImageFix"/>
<feBlend mode="normal" in="SourceGraphic" in2="BackgroundImageFix" result="shape"/>
<feColorMatrix in="SourceAlpha" type="matrix" values="0 0 0 0 0 0 0 0 0 0 0 0 0 0 0 0 0 0 127 0" result="hardAlpha"/>
<feOffset/>
<feGaussianBlur stdDeviation="36.85"/>
<feComposite in2="hardAlpha" operator="arithmetic" k2="-1" k3="1"/>
<feColorMatrix type="matrix" values="0 0 0 0 1 0 0 0 0 0.656334 0 0 0 0 0.252901 0 0 0 0.7 0"/>
<feBlend mode="normal" in2="shape" result="effect1_innerShadow_131_1818"/>
<feGaussianBlur stdDeviation="9.75" result="effect2_foregroundBlur_131_1818"/>
</filter>
<radialGradient id="paint0_radial_131_1818" cx="0" cy="0" r="1" gradientUnits="userSpaceOnUse" gradientTransform="translate(243.765 713.939) rotate(130.236) scale(365.762)">
<stop stop-color="#FFD26D"/>
<stop offset="1" stop-color="#FFB442"/>
</radialGradient>
<radialGradient id="paint1_radial_131_1818" cx="0" cy="0" r="1" gradientUnits="userSpaceOnUse" gradientTransform="translate(230.878 709.643) rotate(136.931) scale(135.245)">
<stop stop-color="#FFF6E1"/>
<stop offset="1" stop-color="#FFD986" stop-opacity="0.67"/>
</radialGradient>
<radialGradient id="paint2_radial_131_1818" cx="0" cy="0" r="1" gradientUnits="userSpaceOnUse" gradientTransform="translate(1537 60.2217) rotate(130.236) scale(170.294)">
<stop stop-color="#FFD26D"/>
<stop offset="1" stop-color="#FFB442"/>
</radialGradient>
<radialGradient id="paint3_radial_131_1818" cx="0" cy="0" r="1" gradientUnits="userSpaceOnUse" gradientTransform="translate(1531 58.2217) rotate(136.931) scale(62.9682)">
<stop stop-color="#FFF6E1"/>
<stop offset="1" stop-color="#FFD986" stop-opacity="0.67"/>
</radialGradient>
<radialGradient id="paint4_radial_131_1818" cx="0" cy="0" r="1" gradientUnits="userSpaceOnUse" gradientTransform="translate(1364.3 664.783) rotate(130.236) scale(77.7429)">
<stop stop-color="#FFD26D"/>
<stop offset="1" stop-color="#FFB442"/>
</radialGradient>
<radialGradient id="paint5_radial_131_1818" cx="0" cy="0" r="1" gradientUnits="userSpaceOnUse" gradientTransform="translate(1361.57 663.87) rotate(136.931) scale(28.7464)">
<stop stop-color="#FFF6E1"/>
<stop offset="1" stop-color="#FFD986" stop-opacity="0.67"/>
</radialGradient>
<radialGradient id="paint6_radial_131_1818" cx="0" cy="0" r="1" gradientUnits="userSpaceOnUse" gradientTransform="translate(768.422 438.423) rotate(90) scale(427.771)">
<stop stop-color="white"/>
<stop offset="1" stop-color="white" stop-opacity="0"/>
</radialGradient>
</defs>
</svg>
