<svg width="17" height="17" viewBox="0 0 17 17" fill="none" xmlns="http://www.w3.org/2000/svg">
<path d="M8.79854 5.80737C9.52322 5.80737 10.1161 5.21445 10.1161 4.48978C10.1161 3.76511 9.52322 3.1722 8.79854 3.1722C8.07387 3.1722 7.48096 3.76511 7.48096 4.48978C7.48096 5.21445 8.07387 5.80737 8.79854 5.80737ZM8.79854 7.12496C8.07387 7.12496 7.48096 7.71787 7.48096 8.44254C7.48096 9.16721 8.07387 9.76013 8.79854 9.76013C9.52322 9.76013 10.1161 9.16721 10.1161 8.44254C10.1161 7.71787 9.52322 7.12496 8.79854 7.12496ZM8.79854 11.0777C8.07387 11.0777 7.48096 11.6706 7.48096 12.3953C7.48096 13.12 8.07387 13.7129 8.79854 13.7129C9.52322 13.7129 10.1161 13.12 10.1161 12.3953C10.1161 11.6706 9.52322 11.0777 8.79854 11.0777Z" fill="#331000"/>
</svg>
