<svg width="24" height="25" viewBox="0 0 24 25" fill="none" xmlns="http://www.w3.org/2000/svg">
<path d="M16.5 6.3606V17.8606C16.5 20.0706 14.71 21.8606 12.5 21.8606C10.29 21.8606 8.5 20.0706 8.5 17.8606V5.3606C8.5 3.9806 9.62 2.8606 11 2.8606C12.38 2.8606 13.5 3.9806 13.5 5.3606V15.8606C13.5 16.4106 13.05 16.8606 12.5 16.8606C11.95 16.8606 11.5 16.4106 11.5 15.8606V6.3606H10V15.8606C10 17.2406 11.12 18.3606 12.5 18.3606C13.88 18.3606 15 17.2406 15 15.8606V5.3606C15 3.1506 13.21 1.3606 11 1.3606C8.79 1.3606 7 3.1506 7 5.3606V17.8606C7 20.9006 9.46 23.3606 12.5 23.3606C15.54 23.3606 18 20.9006 18 17.8606V6.3606H16.5Z" fill="#835929"/>
</svg>
