<svg width="24" height="25" viewBox="0 0 24 25" fill="none" xmlns="http://www.w3.org/2000/svg">
<path fill-rule="evenodd" clip-rule="evenodd" d="M11 4.73944L8.7 7.04205C8.3 7.44251 7.7 7.44251 7.3 7.04205C6.9 6.6416 6.9 6.04091 7.3 5.64046L11.3 1.63591C11.35 1.58585 11.4 1.56082 11.45 1.53579C11.5 1.51077 11.55 1.48574 11.6 1.43568C11.9 1.33557 12.2 1.33557 12.4 1.43568C12.5 1.43568 12.6 1.53579 12.7 1.63591L16.7 5.64046C17.1 6.04091 17.1 6.6416 16.7 7.04205C16.5 7.24228 16.3 7.34239 16 7.34239C15.7 7.34239 15.5 7.24228 15.3 7.04205L13 4.73944V16.3526C13 16.9533 12.6 17.3538 12 17.3538C11.4 17.3538 11 16.9533 11 16.3526V4.73944ZM22 20.3572V17.3538C22 16.7531 21.6 16.3526 21 16.3526C20.4 16.3526 20 16.7531 20 17.3538V20.3572C20 20.9579 19.6 21.3583 19 21.3583H5C4.4 21.3583 4 20.9579 4 20.3572V17.3538C4 16.7531 3.6 16.3526 3 16.3526C2.4 16.3526 2 16.7531 2 17.3538V20.3572C2 22.0591 3.3 23.3606 5 23.3606H19C20.7 23.3606 22 22.0591 22 20.3572Z" fill="#331000"/>
<mask id="mask0_252_1400" style="mask-type:luminance" maskUnits="userSpaceOnUse" x="2" y="1" width="20" height="23">
<path fill-rule="evenodd" clip-rule="evenodd" d="M11 4.73944L8.7 7.04205C8.3 7.44251 7.7 7.44251 7.3 7.04205C6.9 6.6416 6.9 6.04091 7.3 5.64046L11.3 1.63591C11.35 1.58585 11.4 1.56082 11.45 1.53579C11.5 1.51077 11.55 1.48574 11.6 1.43568C11.9 1.33557 12.2 1.33557 12.4 1.43568C12.5 1.43568 12.6 1.53579 12.7 1.63591L16.7 5.64046C17.1 6.04091 17.1 6.6416 16.7 7.04205C16.5 7.24228 16.3 7.34239 16 7.34239C15.7 7.34239 15.5 7.24228 15.3 7.04205L13 4.73944V16.3526C13 16.9533 12.6 17.3538 12 17.3538C11.4 17.3538 11 16.9533 11 16.3526V4.73944ZM22 20.3572V17.3538C22 16.7531 21.6 16.3526 21 16.3526C20.4 16.3526 20 16.7531 20 17.3538V20.3572C20 20.9579 19.6 21.3583 19 21.3583H5C4.4 21.3583 4 20.9579 4 20.3572V17.3538C4 16.7531 3.6 16.3526 3 16.3526C2.4 16.3526 2 16.7531 2 17.3538V20.3572C2 22.0591 3.3 23.3606 5 23.3606H19C20.7 23.3606 22 22.0591 22 20.3572Z" fill="white"/>
</mask>
<g mask="url(#mask0_252_1400)">
<rect y="0.360596" width="24" height="24" fill="#121212"/>
</g>
</svg>
