<svg width="16" height="17" viewBox="0 0 16 17" fill="none" xmlns="http://www.w3.org/2000/svg">
<path fill-rule="evenodd" clip-rule="evenodd" d="M5.66667 1.83334C3.8 1.83334 2.33333 3.30001 2.33333 5.16668C2.33333 7.03334 3.8 8.50001 5.66667 8.50001C7.53333 8.50001 9 7.03334 9 5.16668C9 3.30001 7.53333 1.83334 5.66667 1.83334ZM11.3333 14.5V13.1667C11.3333 11.3 9.86667 9.83334 8 9.83334H3.33333C1.46667 9.83334 0 11.3 0 13.1667V14.5C0 14.9 0.266667 15.1667 0.666667 15.1667C1.06667 15.1667 1.33333 14.9 1.33333 14.5V13.1667C1.33333 12.0333 2.2 11.1667 3.33333 11.1667H8C9.13333 11.1667 10 12.0333 10 13.1667V14.5C10 14.9 10.2667 15.1667 10.6667 15.1667C11.0667 15.1667 11.3333 14.9 11.3333 14.5ZM3.66667 5.16668C3.66667 6.30001 4.53333 7.16668 5.66667 7.16668C6.8 7.16668 7.66667 6.30001 7.66667 5.16668C7.66667 4.03334 6.8 3.16668 5.66667 3.16668C4.53333 3.16668 3.66667 4.03334 3.66667 5.16668ZM14 7.16668H15.3333C15.7333 7.16668 16 7.43334 16 7.83334C16 8.23334 15.7333 8.50001 15.3333 8.50001H14V9.83334C14 10.2333 13.7333 10.5 13.3333 10.5C12.9333 10.5 12.6667 10.2333 12.6667 9.83334V8.50001H11.3333C10.9333 8.50001 10.6667 8.23334 10.6667 7.83334C10.6667 7.43334 10.9333 7.16668 11.3333 7.16668H12.6667V5.83334C12.6667 5.43334 12.9333 5.16668 13.3333 5.16668C13.7333 5.16668 14 5.43334 14 5.83334V7.16668Z" fill="black"/>
<mask id="mask0_28_20117" style="mask-type:luminance" maskUnits="userSpaceOnUse" x="0" y="1" width="16" height="15">
<path fill-rule="evenodd" clip-rule="evenodd" d="M5.66667 1.83334C3.8 1.83334 2.33333 3.30001 2.33333 5.16668C2.33333 7.03334 3.8 8.50001 5.66667 8.50001C7.53333 8.50001 9 7.03334 9 5.16668C9 3.30001 7.53333 1.83334 5.66667 1.83334ZM11.3333 14.5V13.1667C11.3333 11.3 9.86667 9.83334 8 9.83334H3.33333C1.46667 9.83334 0 11.3 0 13.1667V14.5C0 14.9 0.266667 15.1667 0.666667 15.1667C1.06667 15.1667 1.33333 14.9 1.33333 14.5V13.1667C1.33333 12.0333 2.2 11.1667 3.33333 11.1667H8C9.13333 11.1667 10 12.0333 10 13.1667V14.5C10 14.9 10.2667 15.1667 10.6667 15.1667C11.0667 15.1667 11.3333 14.9 11.3333 14.5ZM3.66667 5.16668C3.66667 6.30001 4.53333 7.16668 5.66667 7.16668C6.8 7.16668 7.66667 6.30001 7.66667 5.16668C7.66667 4.03334 6.8 3.16668 5.66667 3.16668C4.53333 3.16668 3.66667 4.03334 3.66667 5.16668ZM14 7.16668H15.3333C15.7333 7.16668 16 7.43334 16 7.83334C16 8.23334 15.7333 8.50001 15.3333 8.50001H14V9.83334C14 10.2333 13.7333 10.5 13.3333 10.5C12.9333 10.5 12.6667 10.2333 12.6667 9.83334V8.50001H11.3333C10.9333 8.50001 10.6667 8.23334 10.6667 7.83334C10.6667 7.43334 10.9333 7.16668 11.3333 7.16668H12.6667V5.83334C12.6667 5.43334 12.9333 5.16668 13.3333 5.16668C13.7333 5.16668 14 5.43334 14 5.83334V7.16668Z" fill="white"/>
</mask>
<g mask="url(#mask0_28_20117)">
<rect y="0.5" width="16" height="16" fill="#62C554"/>
</g>
</svg>
