<svg width="25" height="25" viewBox="0 0 25 25" fill="none" xmlns="http://www.w3.org/2000/svg">
<path fill-rule="evenodd" clip-rule="evenodd" d="M9 2.55313C6.2 2.55313 4 4.75313 4 7.55313C4 10.3531 6.2 12.5531 9 12.5531C11.8 12.5531 14 10.3531 14 7.55313C14 4.75313 11.8 2.55313 9 2.55313ZM17.5 21.5531V19.5531C17.5 16.7531 15.3 14.5531 12.5 14.5531H5.5C2.7 14.5531 0.5 16.7531 0.5 19.5531V21.5531C0.5 22.1531 0.9 22.5531 1.5 22.5531C2.1 22.5531 2.5 22.1531 2.5 21.5531V19.5531C2.5 17.8531 3.8 16.5531 5.5 16.5531H12.5C14.2 16.5531 15.5 17.8531 15.5 19.5531V21.5531C15.5 22.1531 15.9 22.5531 16.5 22.5531C17.1 22.5531 17.5 22.1531 17.5 21.5531ZM6 7.55313C6 9.25313 7.3 10.5531 9 10.5531C10.7 10.5531 12 9.25313 12 7.55313C12 5.85313 10.7 4.55313 9 4.55313C7.3 4.55313 6 5.85313 6 7.55313ZM21.5 10.5531H23.5C24.1 10.5531 24.5 10.9531 24.5 11.5531C24.5 12.1531 24.1 12.5531 23.5 12.5531H21.5V14.5531C21.5 15.1531 21.1 15.5531 20.5 15.5531C19.9 15.5531 19.5 15.1531 19.5 14.5531V12.5531H17.5C16.9 12.5531 16.5 12.1531 16.5 11.5531C16.5 10.9531 16.9 10.5531 17.5 10.5531H19.5V8.55313C19.5 7.95313 19.9 7.55313 20.5 7.55313C21.1 7.55313 21.5 7.95313 21.5 8.55313V10.5531Z" fill="#331000"/>
<mask id="mask0_193_161" style="mask-type:luminance" maskUnits="userSpaceOnUse" x="0" y="2" width="25" height="21">
<path fill-rule="evenodd" clip-rule="evenodd" d="M9 2.55313C6.2 2.55313 4 4.75313 4 7.55313C4 10.3531 6.2 12.5531 9 12.5531C11.8 12.5531 14 10.3531 14 7.55313C14 4.75313 11.8 2.55313 9 2.55313ZM17.5 21.5531V19.5531C17.5 16.7531 15.3 14.5531 12.5 14.5531H5.5C2.7 14.5531 0.5 16.7531 0.5 19.5531V21.5531C0.5 22.1531 0.9 22.5531 1.5 22.5531C2.1 22.5531 2.5 22.1531 2.5 21.5531V19.5531C2.5 17.8531 3.8 16.5531 5.5 16.5531H12.5C14.2 16.5531 15.5 17.8531 15.5 19.5531V21.5531C15.5 22.1531 15.9 22.5531 16.5 22.5531C17.1 22.5531 17.5 22.1531 17.5 21.5531ZM6 7.55313C6 9.25313 7.3 10.5531 9 10.5531C10.7 10.5531 12 9.25313 12 7.55313C12 5.85313 10.7 4.55313 9 4.55313C7.3 4.55313 6 5.85313 6 7.55313ZM21.5 10.5531H23.5C24.1 10.5531 24.5 10.9531 24.5 11.5531C24.5 12.1531 24.1 12.5531 23.5 12.5531H21.5V14.5531C21.5 15.1531 21.1 15.5531 20.5 15.5531C19.9 15.5531 19.5 15.1531 19.5 14.5531V12.5531H17.5C16.9 12.5531 16.5 12.1531 16.5 11.5531C16.5 10.9531 16.9 10.5531 17.5 10.5531H19.5V8.55313C19.5 7.95313 19.9 7.55313 20.5 7.55313C21.1 7.55313 21.5 7.95313 21.5 8.55313V10.5531Z" fill="white"/>
</mask>
<g mask="url(#mask0_193_161)">
<rect x="0.5" y="0.553131" width="24" height="24" fill="white"/>
</g>
</svg>
